<?xml version="1.0" standalone="no"?>
<!DOCTYPE svg PUBLIC "-//W3C//DTD SVG 20010904//EN"
 "http://www.w3.org/TR/2001/REC-SVG-20010904/DTD/svg10.dtd">
<svg version="1.0" xmlns="http://www.w3.org/2000/svg"
 width="700.000000pt" height="700.000000pt" viewBox="0 0 700.000000 700.000000"
 preserveAspectRatio="xMidYMid meet">
<metadata>
Created by potrace 1.11, written by Peter Selinger 2001-2013
</metadata>
<g transform="translate(0.000000,700.000000) scale(0.100000,-0.100000)"
fill="#000000" stroke="none">
<path d="M0 3752 l0 -1442 2749 0 c2187 0 2751 3 2758 13 6 6 205 471 443
1032 238 561 436 1023 440 1028 3 4 103 6 222 5 l215 -3 -521 -1225 -522
-1225 -2737 -3 -2738 -2 3 -58 3 -57 2771 -3 2771 -2 12 27 c27 58 1131 2654
1131 2659 0 2 -126 4 -280 4 -154 0 -280 2 -280 4 0 3 65 156 144 340 l144
336 -3056 0 c-1682 0 -3195 3 -3364 7 l-308 6 0 -1441z m2375 753 c104 -22
182 -64 252 -138 73 -76 117 -158 144 -275 18 -75 21 -107 16 -237 -6 -151
-17 -217 -59 -325 -70 -181 -220 -356 -368 -428 -152 -75 -157 -75 -604 -80
-328 -3 -398 -1 -394 10 3 7 74 345 159 750 l154 738 315 0 c239 0 332 -4 385
-15z m1315 -399 c112 -41 197 -130 242 -251 19 -51 22 -81 23 -195 0 -74 -3
-147 -8 -162 l-7 -28 -370 0 -370 0 0 -42 c0 -92 45 -170 121 -208 52 -27 139
-27 195 1 39 18 99 74 120 111 8 14 23 13 134 -5 69 -11 126 -21 128 -23 10
-7 -45 -90 -93 -142 -100 -109 -206 -159 -355 -169 -155 -10 -285 33 -384 127
-99 94 -146 216 -146 381 0 303 184 554 450 614 83 19 257 14 320 -9z m725
-18 c11 -49 105 -648 105 -672 0 -50 18 -33 75 72 31 59 125 223 209 364 l151
258 157 0 158 0 -72 -117 c-40 -65 -190 -309 -334 -543 l-261 -425 -129 -3
-129 -3 -103 518 c-57 285 -106 530 -109 546 l-5 27 141 0 c138 0 141 0 146
-22z"/>
<path d="M1927 4259 c-13 -53 -207 -987 -207 -998 0 -14 147 -15 294 -1 134
13 196 40 275 119 106 108 171 255 191 436 25 224 -32 379 -162 435 -46 20
-75 24 -219 28 l-166 5 -6 -24z"/>
<path d="M3395 3902 c-72 -34 -141 -128 -160 -219 l-7 -33 237 0 237 0 -7 63
c-9 79 -37 140 -83 175 -47 36 -155 43 -217 14z"/>
</g>
</svg>
